<?xml version="1.0"?>
<svg xmlns="http://www.w3.org/2000/svg" xmlns:xlink="http://www.w3.org/1999/xlink" xmlns:svgjs="http://svgjs.com/svgjs" version="1.1" width="512" height="512" x="0" y="0" viewBox="0 0 512.019 512.019" style="enable-background:new 0 0 512 512" xml:space="preserve" class=""><g transform="matrix(-4.2862637970157366e-16,1,1,4.2862637970157366e-16,-0.0006669759750366211,0.0006669759750366211)">
<g xmlns="http://www.w3.org/2000/svg">
	<g>
		<path d="M288.009,96.019h-48v-80c0-6.144-3.52-11.744-9.056-14.432c-5.568-2.656-12.128-1.952-16.928,1.92l-160,128    c-3.808,3.072-6.016,7.648-6.016,12.512s2.208,9.44,6.016,12.512l160,128c2.88,2.304,6.432,3.488,9.984,3.488    c2.368,0,4.736-0.512,6.944-1.568c5.536-2.688,9.056-8.288,9.056-14.432v-80h48c44.128,0,80,35.904,80,80v240h96v-240    C464.009,174.963,385.033,96.019,288.009,96.019z" fill="#213a7f" data-original="#000000" style="" class=""/>
	</g>
</g>
<g xmlns="http://www.w3.org/2000/svg">
</g>
<g xmlns="http://www.w3.org/2000/svg">
</g>
<g xmlns="http://www.w3.org/2000/svg">
</g>
<g xmlns="http://www.w3.org/2000/svg">
</g>
<g xmlns="http://www.w3.org/2000/svg">
</g>
<g xmlns="http://www.w3.org/2000/svg">
</g>
<g xmlns="http://www.w3.org/2000/svg">
</g>
<g xmlns="http://www.w3.org/2000/svg">
</g>
<g xmlns="http://www.w3.org/2000/svg">
</g>
<g xmlns="http://www.w3.org/2000/svg">
</g>
<g xmlns="http://www.w3.org/2000/svg">
</g>
<g xmlns="http://www.w3.org/2000/svg">
</g>
<g xmlns="http://www.w3.org/2000/svg">
</g>
<g xmlns="http://www.w3.org/2000/svg">
</g>
<g xmlns="http://www.w3.org/2000/svg">
</g>
</g></svg>
